<svg width="32" height="31" viewBox="0 0 32 31" fill="none" xmlns="http://www.w3.org/2000/svg">
<path fill-rule="evenodd" clip-rule="evenodd" d="M23.7212 11.2871H20.4002C19.958 11.2871 19.534 11.4627 19.2213 11.7754C18.9086 12.0881 18.7329 12.5122 18.7329 12.9544V16.2903H23.7212L22.9912 21.2922H18.7329V30.4657H13.246V21.2922H8.71622V16.291H13.188L13.246 11.5436L13.2296 9.84219C13.2241 9.2674 13.3326 8.69721 13.5488 8.16459C13.7649 7.63196 14.0845 7.14746 14.489 6.73907C14.8936 6.33068 15.375 6.00651 15.9055 5.78528C16.4361 5.56406 17.0052 5.45017 17.58 5.4502H23.7212V11.2871Z" fill="white"/>
<rect x="2.38727" y="1.62598" width="27.6628" height="27.6628" rx="5.5" stroke="white" stroke-width="3"/>
</svg>
