<svg width="293" height="44" viewBox="0 0 293 44" fill="none" xmlns="http://www.w3.org/2000/svg">
<path d="M11.3495 3.04878H17.0568L10.0368 38.0346H31.7246L30.7543 43H3.35922L11.3495 3.04878ZM73.4402 12.7512L67.4475 43H62.1968L62.9387 39.2902C61.5689 40.5839 59.9709 41.5922 58.1446 42.3151C56.3563 43 54.3968 43.3424 52.266 43.3424C49.6787 43.3424 47.3768 42.8288 45.3602 41.8015C43.3436 40.7361 41.7646 39.2141 40.6231 37.2356C39.4816 35.2571 38.9109 32.9361 38.9109 30.2727C38.9109 26.8483 39.6529 23.7854 41.1368 21.0839C42.6207 18.3824 44.6563 16.2707 47.2436 14.7488C49.8689 13.2268 52.7987 12.4659 56.0329 12.4659C58.6202 12.4659 60.827 12.9224 62.6533 13.8356C64.5177 14.7488 65.9446 16.0995 66.9338 17.8878L67.9611 12.7512H73.4402ZM53.4646 38.5483C55.7094 38.5483 57.726 38.0156 59.5143 36.9502C61.3407 35.8468 62.7485 34.3249 63.7377 32.3844C64.765 30.4439 65.2787 28.2371 65.2787 25.7639C65.2787 23.0624 64.4987 20.9698 62.9387 19.4859C61.3787 18.002 59.1528 17.26 56.2611 17.26C54.0163 17.26 51.9997 17.8117 50.2114 18.9151C48.4231 19.9805 47.0153 21.4834 45.988 23.4239C44.9607 25.3644 44.447 27.5712 44.447 30.0444C44.447 32.7078 45.227 34.8005 46.787 36.3224C48.385 37.8063 50.6109 38.5483 53.4646 38.5483ZM151.559 12.7512L145.566 43H140.316L141.058 39.2902C139.688 40.5839 138.09 41.5922 136.263 42.3151C134.475 43 132.516 43.3424 130.385 43.3424C127.798 43.3424 125.496 42.8288 123.479 41.8015C121.462 40.7361 119.883 39.2141 118.742 37.2356C117.601 35.2571 117.03 32.9361 117.03 30.2727C117.03 26.8483 117.772 23.7854 119.256 21.0839C120.74 18.3824 122.775 16.2707 125.362 14.7488C127.988 13.2268 130.918 12.4659 134.152 12.4659C136.739 12.4659 138.946 12.9224 140.772 13.8356C142.637 14.7488 144.063 16.0995 145.053 17.8878L146.08 12.7512H151.559ZM131.583 38.5483C133.828 38.5483 135.845 38.0156 137.633 36.9502C139.46 35.8468 140.867 34.3249 141.857 32.3844C142.884 30.4439 143.398 28.2371 143.398 25.7639C143.398 23.0624 142.618 20.9698 141.058 19.4859C139.498 18.002 137.272 17.26 134.38 17.26C132.135 17.26 130.119 17.8117 128.33 18.9151C126.542 19.9805 125.134 21.4834 124.107 23.4239C123.08 25.3644 122.566 27.5712 122.566 30.0444C122.566 32.7078 123.346 34.8005 124.906 36.3224C126.504 37.8063 128.73 38.5483 131.583 38.5483ZM180.303 12.4659C183.766 12.4659 186.448 13.341 188.351 15.0912C190.291 16.8415 191.261 19.3146 191.261 22.5107C191.261 23.6141 191.147 24.7937 190.919 26.0493L187.552 43H182.073L185.44 26.0493C185.63 25.022 185.725 24.1849 185.725 23.538C185.725 21.5595 185.136 20.0376 183.956 18.9722C182.777 17.9068 181.026 17.3741 178.705 17.3741C175.738 17.3741 173.283 18.1922 171.343 19.8283C169.44 21.4263 168.166 23.8234 167.519 27.0195L164.323 43H158.844L164.837 12.7512H170.087L169.345 16.6322C172.085 13.8546 175.738 12.4659 180.303 12.4659ZM237.639 0.651708L229.192 43H223.941L224.683 39.2902C223.313 40.5839 221.715 41.5922 219.889 42.3151C218.101 43 216.141 43.3424 214.01 43.3424C211.423 43.3424 209.121 42.8288 207.105 41.8015C205.088 40.7361 203.509 39.2141 202.368 37.2356C201.226 35.2571 200.655 32.9361 200.655 30.2727C200.655 26.8483 201.397 23.7854 202.881 21.0839C204.365 18.3824 206.401 16.2707 208.988 14.7488C211.613 13.2268 214.543 12.4659 217.777 12.4659C220.365 12.4659 222.59 12.9415 224.455 13.8927C226.357 14.8059 227.784 16.1566 228.735 17.9449L232.16 0.651708H237.639ZM215.209 38.5483C217.454 38.5483 219.47 38.0156 221.259 36.9502C223.085 35.8468 224.493 34.3249 225.482 32.3844C226.51 30.4439 227.023 28.2371 227.023 25.7639C227.023 23.0624 226.243 20.9698 224.683 19.4859C223.123 18.002 220.897 17.26 218.006 17.26C215.761 17.26 213.744 17.8117 211.956 18.9151C210.168 19.9805 208.76 21.4834 207.732 23.4239C206.705 25.3644 206.191 27.5712 206.191 30.0444C206.191 32.7078 206.971 34.8005 208.531 36.3224C210.13 37.8063 212.355 38.5483 215.209 38.5483ZM247.777 29.5878V29.9302C247.777 32.7459 248.576 34.8956 250.174 36.3795C251.772 37.8254 254.169 38.5483 257.366 38.5483C259.23 38.5483 260.98 38.2439 262.616 37.6351C264.252 36.9883 265.622 36.1322 266.726 35.0668L269.066 39.0049C267.582 40.3746 265.774 41.44 263.644 42.201C261.513 42.962 259.268 43.3424 256.909 43.3424C253.941 43.3424 251.373 42.8098 249.204 41.7444C247.035 40.679 245.361 39.1571 244.182 37.1785C243.002 35.2 242.412 32.879 242.412 30.2156C242.412 26.8293 243.135 23.7854 244.581 21.0839C246.065 18.3824 248.101 16.2707 250.688 14.7488C253.313 13.2268 256.243 12.4659 259.477 12.4659C263.587 12.4659 266.859 13.6454 269.294 16.0044C271.767 18.3254 273.004 21.5024 273.004 25.5356C273.004 26.7532 272.87 28.1039 272.604 29.5878H247.777ZM259.249 17.0317C256.548 17.0317 254.227 17.7927 252.286 19.3146C250.346 20.8366 249.033 22.9293 248.348 25.5927H267.867C268.019 22.8912 267.296 20.7985 265.698 19.3146C264.138 17.7927 261.988 17.0317 259.249 17.0317Z" fill="white"/>
<mask id="path-2-inside-1" fill="white">
<path d="M86.3556 12.6743H80.9364L88.1007 42.9293H93.3821L86.3556 12.6743Z"/>
</mask>
<path d="M80.9364 12.6743V7.18325H73.9933L75.5931 13.9396L80.9364 12.6743ZM86.3556 12.6743L91.7043 11.4321L90.7175 7.18325H86.3556V12.6743ZM93.3821 42.9293V48.4204H100.295L98.7308 41.6872L93.3821 42.9293ZM88.1007 42.9293L82.7574 44.1946L83.758 48.4204H88.1007V42.9293ZM80.9364 18.1654H86.3556V7.18325H80.9364V18.1654ZM81.0069 13.9165L88.0333 44.1715L98.7308 41.6872L91.7043 11.4321L81.0069 13.9165ZM93.3821 37.4383H88.1007V48.4204H93.3821V37.4383ZM93.444 41.6641L86.2797 11.409L75.5931 13.9396L82.7574 44.1946L93.444 41.6641Z" fill="white" mask="url(#path-2-inside-1)"/>
<path d="M105.798 33.9023C110.743 26.6545 107.891 12.7839 107.891 12.7839C107.891 12.7839 107.248 15.7798 102.516 19.032C96.5164 23.1557 95.0164 26.6546 91.5754 42.9044C92.1918 43.2604 99.5324 43.0849 105.798 33.9023Z" fill="#AF9BCC"/>
</svg>
