<svg width="32" height="32" viewBox="0 0 32 32" fill="none" xmlns="http://www.w3.org/2000/svg">
<path fill-rule="evenodd" clip-rule="evenodd" d="M9.5376 0.219954C11.1971 0.143063 11.7262 0.125977 15.9534 0.125977C20.1806 0.125977 20.7097 0.144487 22.3677 0.219954C24.0258 0.295421 25.1575 0.56169 26.1479 0.947567C27.1848 1.34199 28.1256 1.95854 28.9037 2.75592C29.696 3.53764 30.3071 4.48311 30.6976 5.52825C31.0824 6.52498 31.3455 7.6641 31.4219 9.33007C31.4983 11.0031 31.5153 11.5357 31.5153 15.7889C31.5153 20.0435 31.4969 20.576 31.4219 22.2463C31.347 23.9122 31.0824 25.0513 30.6976 26.0481C30.3071 27.0934 29.695 28.0404 28.9037 28.8233C28.1256 29.6206 27.1848 30.2358 26.1479 30.6288C25.1575 31.0161 24.0258 31.2809 22.3705 31.3578C20.7097 31.4347 20.1806 31.4518 15.9534 31.4518C11.7262 31.4518 11.1971 31.4333 9.5376 31.3578C7.88237 31.2823 6.7506 31.0161 5.76029 30.6288C4.72177 30.2357 3.78084 29.6196 3.003 28.8233C2.21129 28.0411 1.59862 27.0945 1.20771 26.0495C0.824324 25.0528 0.561185 23.9137 0.48479 22.2477C0.408395 20.5746 0.391418 20.0421 0.391418 15.7889C0.391418 11.5343 0.40981 11.0017 0.48479 9.33291C0.55977 7.6641 0.824324 6.52498 1.20771 5.52825C1.5992 4.48323 2.21233 3.53666 3.00441 2.7545C3.78115 1.95783 4.72114 1.34119 5.75888 0.947567C6.74918 0.56169 7.88096 0.296845 9.53618 0.219954H9.5376ZM22.2418 3.03928C20.6007 2.96381 20.1084 2.94815 15.9534 2.94815C11.7983 2.94815 11.306 2.96381 9.66492 3.03928C8.14693 3.10905 7.32356 3.36393 6.77465 3.57893C6.04889 3.86371 5.52969 4.20118 4.98502 4.74938C4.46871 5.25494 4.07137 5.87039 3.82212 6.55061C3.6085 7.10309 3.35526 7.9318 3.28594 9.45964C3.21096 11.1114 3.1954 11.6069 3.1954 15.7889C3.1954 19.9709 3.21096 20.4664 3.28594 22.1181C3.35526 23.646 3.6085 24.4747 3.82212 25.0271C4.07111 25.7063 4.46865 26.3229 4.98502 26.8284C5.48725 27.3481 6.09982 27.7482 6.77465 27.9988C7.32356 28.2138 8.14693 28.4687 9.66492 28.5385C11.306 28.6139 11.7969 28.6296 15.9534 28.6296C20.1098 28.6296 20.6007 28.6139 22.2418 28.5385C23.7598 28.4687 24.5832 28.2138 25.1321 27.9988C25.8578 27.714 26.377 27.3766 26.9217 26.8284C27.4381 26.3229 27.8356 25.7063 28.0846 25.0271C28.2982 24.4747 28.5515 23.646 28.6208 22.1181C28.6958 20.4664 28.7113 19.9709 28.7113 15.7889C28.7113 11.6069 28.6958 11.1114 28.6208 9.45964C28.5515 7.9318 28.2982 7.10309 28.0846 6.55061C27.8017 5.82015 27.4664 5.29758 26.9217 4.74938C26.4194 4.22976 25.8079 3.82984 25.1321 3.57893C24.5832 3.36393 23.7598 3.10905 22.2418 3.03928V3.03928ZM13.9657 20.6173C15.0758 21.0824 16.3118 21.1452 17.4628 20.7949C18.6137 20.4446 19.6081 19.7031 20.2762 18.6968C20.9443 17.6906 21.2445 16.4821 21.1257 15.2778C21.0068 14.0736 20.4762 12.9482 19.6246 12.0939C19.0817 11.5478 18.4252 11.1296 17.7024 10.8695C16.9797 10.6094 16.2086 10.5138 15.4448 10.5897C14.6809 10.6655 13.9433 10.9108 13.2849 11.308C12.6266 11.7053 12.0639 12.2444 11.6375 12.8868C11.211 13.5291 10.9314 14.2586 10.8187 15.0228C10.7059 15.7869 10.763 16.5667 10.9856 17.3061C11.2083 18.0454 11.591 18.7258 12.1063 19.2984C12.6216 19.871 13.2567 20.3214 13.9657 20.6173ZM10.2973 10.0961C11.0401 9.34854 11.9219 8.75553 12.8923 8.35094C13.8628 7.94635 14.9029 7.73811 15.9534 7.73811C17.0038 7.73811 18.0439 7.94635 19.0144 8.35094C19.9849 8.75553 20.8667 9.34854 21.6094 10.0961C22.3522 10.8437 22.9414 11.7312 23.3434 12.708C23.7453 13.6847 23.9522 14.7316 23.9522 15.7889C23.9522 16.8461 23.7453 17.893 23.3434 18.8698C22.9414 19.8465 22.3522 20.734 21.6094 21.4816C20.1093 22.9914 18.0748 23.8396 15.9534 23.8396C13.8319 23.8396 11.7974 22.9914 10.2973 21.4816C8.79722 19.9718 7.95449 17.9241 7.95449 15.7889C7.95449 13.6537 8.79722 11.6059 10.2973 10.0961V10.0961ZM25.7263 8.93707C25.9103 8.76231 26.0577 8.55216 26.1596 8.31906C26.2615 8.08596 26.3159 7.83464 26.3196 7.57999C26.3233 7.32535 26.2762 7.07254 26.1811 6.83655C26.0859 6.60055 25.9447 6.38617 25.7658 6.20609C25.5869 6.026 25.3739 5.88388 25.1394 5.78814C24.905 5.6924 24.6538 5.64498 24.4008 5.64869C24.1478 5.6524 23.8981 5.70717 23.6665 5.80975C23.4349 5.91233 23.2261 6.06064 23.0524 6.2459C22.7148 6.60619 22.5299 7.08475 22.5371 7.57999C22.5442 8.07524 22.7429 8.54817 23.0909 8.8984C23.4388 9.24863 23.9087 9.44858 24.4008 9.4558C24.8928 9.46302 25.3683 9.27694 25.7263 8.93707V8.93707Z" fill="white"/>
</svg>
