<svg width="121" height="29" viewBox="0 0 121 29" fill="none" xmlns="http://www.w3.org/2000/svg">
<mask id="path-1-inside-1" fill="white">
<path d="M36.8894 13.9999H34.6196L37.6204 26.6766H39.8326L36.8894 13.9999Z"/>
</mask>
<path d="M34.6196 13.9999V11.6999H31.7115L32.3814 14.5297L34.6196 13.9999ZM36.8894 13.9999L39.1299 13.4797L38.7166 11.6999H36.8894V13.9999ZM39.8326 26.6766V28.9766H42.7277L42.073 26.1564L39.8326 26.6766ZM37.6204 26.6766L35.3823 27.2064L35.8013 28.9766H37.6204V26.6766ZM34.6196 16.2999H36.8894V11.6999H34.6196V16.2999ZM34.649 14.52L37.5922 27.1967L42.073 26.1564L39.1299 13.4797L34.649 14.52ZM39.8326 24.3766H37.6204V28.9766H39.8326V24.3766ZM39.8586 26.1467L36.8577 13.4701L32.3814 14.5297L35.3823 27.2064L39.8586 26.1467Z" fill="black" mask="url(#path-1-inside-1)"/>
<path d="M45.1218 22.824C47.1931 19.7872 47.8616 13.9734 47.8616 13.9734C47.8616 13.9734 46.7109 15.0203 44.6187 16.2069C41.586 17.927 39.7608 19.5275 39.2853 26.6659C39.5435 26.8151 42.4975 26.6715 45.1218 22.824Z" fill="#AF9BCC"/>
<path d="M5.13858 9.87651H7.53858L4.58658 24.5885H13.7066L13.2986 26.6765H1.77858L5.13858 9.87651ZM31.2485 13.9565L28.7285 26.6765H26.5205L26.8325 25.1165C26.2565 25.6605 25.5845 26.0845 24.8165 26.3885C24.0645 26.6765 23.2405 26.8205 22.3445 26.8205C21.2565 26.8205 20.2885 26.6045 19.4405 26.1725C18.5925 25.7245 17.9285 25.0845 17.4485 24.2525C16.9685 23.4205 16.7285 22.4445 16.7285 21.3245C16.7285 19.8845 17.0405 18.5965 17.6645 17.4605C18.2885 16.3245 19.1445 15.4365 20.2325 14.7965C21.3365 14.1565 22.5685 13.8365 23.9285 13.8365C25.0165 13.8365 25.9445 14.0285 26.7125 14.4125C27.4965 14.7965 28.0965 15.3645 28.5125 16.1165L28.9445 13.9565H31.2485ZM22.8485 24.8045C23.7925 24.8045 24.6405 24.5805 25.3925 24.1325C26.1605 23.6685 26.7525 23.0285 27.1685 22.2125C27.6005 21.3965 27.8165 20.4685 27.8165 19.4285C27.8165 18.2925 27.4885 17.4125 26.8325 16.7885C26.1765 16.1645 25.2405 15.8525 24.0245 15.8525C23.0805 15.8525 22.2325 16.0845 21.4805 16.5485C20.7285 16.9965 20.1365 17.6285 19.7045 18.4445C19.2725 19.2605 19.0565 20.1885 19.0565 21.2285C19.0565 22.3485 19.3845 23.2285 20.0405 23.8685C20.7125 24.4925 21.6485 24.8045 22.8485 24.8045ZM64.0985 13.9565L61.5785 26.6765H59.3705L59.6825 25.1165C59.1065 25.6605 58.4345 26.0845 57.6665 26.3885C56.9145 26.6765 56.0905 26.8205 55.1945 26.8205C54.1065 26.8205 53.1385 26.6045 52.2905 26.1725C51.4425 25.7245 50.7785 25.0845 50.2985 24.2525C49.8185 23.4205 49.5785 22.4445 49.5785 21.3245C49.5785 19.8845 49.8905 18.5965 50.5145 17.4605C51.1385 16.3245 51.9945 15.4365 53.0825 14.7965C54.1865 14.1565 55.4185 13.8365 56.7785 13.8365C57.8665 13.8365 58.7945 14.0285 59.5625 14.4125C60.3465 14.7965 60.9465 15.3645 61.3625 16.1165L61.7945 13.9565H64.0985ZM55.6985 24.8045C56.6425 24.8045 57.4905 24.5805 58.2425 24.1325C59.0105 23.6685 59.6025 23.0285 60.0185 22.2125C60.4505 21.3965 60.6665 20.4685 60.6665 19.4285C60.6665 18.2925 60.3385 17.4125 59.6825 16.7885C59.0265 16.1645 58.0905 15.8525 56.8745 15.8525C55.9305 15.8525 55.0825 16.0845 54.3305 16.5485C53.5785 16.9965 52.9865 17.6285 52.5545 18.4445C52.1225 19.2605 51.9065 20.1885 51.9065 21.2285C51.9065 22.3485 52.2345 23.2285 52.8905 23.8685C53.5625 24.4925 54.4985 24.8045 55.6985 24.8045ZM76.1859 13.8365C77.6419 13.8365 78.7699 14.2045 79.5699 14.9405C80.3859 15.6765 80.7939 16.7165 80.7939 18.0605C80.7939 18.5245 80.7459 19.0205 80.6499 19.5485L79.2339 26.6765H76.9299L78.3459 19.5485C78.4259 19.1165 78.4659 18.7645 78.4659 18.4925C78.4659 17.6605 78.2179 17.0205 77.7219 16.5725C77.2259 16.1245 76.4899 15.9005 75.5139 15.9005C74.2659 15.9005 73.2339 16.2445 72.4179 16.9325C71.6179 17.6045 71.0819 18.6125 70.8099 19.9565L69.4659 26.6765H67.1619L69.6819 13.9565H71.8899L71.5779 15.5885C72.7299 14.4205 74.2659 13.8365 76.1859 13.8365ZM100.296 8.86851L96.7441 26.6765H94.5361L94.8481 25.1165C94.2721 25.6605 93.6001 26.0845 92.8321 26.3885C92.0801 26.6765 91.2561 26.8205 90.3601 26.8205C89.2721 26.8205 88.3041 26.6045 87.4561 26.1725C86.6081 25.7245 85.9441 25.0845 85.4641 24.2525C84.9841 23.4205 84.7441 22.4445 84.7441 21.3245C84.7441 19.8845 85.0561 18.5965 85.6801 17.4605C86.3041 16.3245 87.1601 15.4365 88.2481 14.7965C89.3521 14.1565 90.5841 13.8365 91.9441 13.8365C93.0321 13.8365 93.9681 14.0365 94.7521 14.4365C95.5521 14.8205 96.1521 15.3885 96.5521 16.1405L97.9921 8.86851H100.296ZM90.8641 24.8045C91.8081 24.8045 92.6561 24.5805 93.4081 24.1325C94.1761 23.6685 94.7681 23.0285 95.1841 22.2125C95.6161 21.3965 95.8321 20.4685 95.8321 19.4285C95.8321 18.2925 95.5041 17.4125 94.8481 16.7885C94.1921 16.1645 93.2561 15.8525 92.0401 15.8525C91.0961 15.8525 90.2481 16.0845 89.4961 16.5485C88.7441 16.9965 88.1521 17.6285 87.7201 18.4445C87.2881 19.2605 87.0721 20.1885 87.0721 21.2285C87.0721 22.3485 87.4001 23.2285 88.0561 23.8685C88.7281 24.4925 89.6641 24.8045 90.8641 24.8045ZM104.56 21.0365V21.1805C104.56 22.3645 104.896 23.2685 105.568 23.8925C106.24 24.5005 107.248 24.8045 108.592 24.8045C109.376 24.8045 110.112 24.6765 110.8 24.4205C111.488 24.1485 112.064 23.7885 112.528 23.3405L113.512 24.9965C112.888 25.5725 112.128 26.0205 111.232 26.3405C110.336 26.6605 109.392 26.8205 108.4 26.8205C107.152 26.8205 106.072 26.5965 105.16 26.1485C104.248 25.7005 103.544 25.0605 103.048 24.2285C102.552 23.3965 102.304 22.4205 102.304 21.3005C102.304 19.8765 102.608 18.5965 103.216 17.4605C103.84 16.3245 104.696 15.4365 105.784 14.7965C106.888 14.1565 108.12 13.8365 109.48 13.8365C111.208 13.8365 112.584 14.3325 113.608 15.3245C114.648 16.3005 115.168 17.6365 115.168 19.3325C115.168 19.8445 115.112 20.4125 115 21.0365H104.56ZM109.384 15.7565C108.248 15.7565 107.272 16.0765 106.456 16.7165C105.64 17.3565 105.088 18.2365 104.8 19.3565H113.008C113.072 18.2205 112.768 17.3405 112.096 16.7165C111.44 16.0765 110.536 15.7565 109.384 15.7565Z" fill="black"/>
</svg>
