<svg width="14" height="14" viewBox="0 0 14 14" fill="none" xmlns="http://www.w3.org/2000/svg">
<mask id="path-1-inside-1" fill="white">
<path d="M2.88944 0.999878H0.619568L3.62041 13.6766H5.83257L2.88944 0.999878Z"/>
</mask>
<path d="M0.619568 0.999878V-1.30012H-2.28845L-1.61858 1.52969L0.619568 0.999878ZM2.88944 0.999878L5.12986 0.479725L4.71663 -1.30012H2.88944V0.999878ZM5.83257 13.6766V15.9766H8.72774L8.07298 13.1564L5.83257 13.6766ZM3.62041 13.6766L1.38226 14.2064L1.8013 15.9766H3.62041V13.6766ZM0.619568 3.29988H2.88944V-1.30012H0.619568V3.29988ZM0.649034 1.52003L3.59216 14.1967L8.07298 13.1564L5.12986 0.479725L0.649034 1.52003ZM5.83257 11.3766H3.62041V15.9766H5.83257V11.3766ZM5.85855 13.1467L2.85771 0.470062L-1.61858 1.52969L1.38226 14.2064L5.85855 13.1467Z" fill="black" mask="url(#path-1-inside-1)"/>
<path d="M11.1218 9.82401C13.1931 6.78722 13.8616 0.973389 13.8616 0.973389C13.8616 0.973389 12.7109 2.02029 10.6187 3.20691C7.586 4.92698 5.76076 6.52755 5.28528 13.6659C5.54346 13.8151 8.49754 13.6715 11.1218 9.82401Z" fill="#AF9BCC"/>
</svg>
